<svg width="512" height="512" viewBox="0 0 512 512" fill="none" xmlns="http://www.w3.org/2000/svg">
<rect width="512" height="512" fill="#022C22"/>
<path d="M296.052 338.792C292.771 333.267 286.701 329.861 280.139 329.861H230.86C224.294 329.861 218.228 333.267 214.947 338.792L190.307 380.276C187.026 385.801 187.026 392.612 190.307 398.137L214.947 439.621C218.228 445.146 224.298 448.552 230.86 448.552H280.143C286.709 448.552 292.775 445.146 296.056 439.621L320.696 398.137C323.977 392.612 323.977 385.801 320.696 380.276L296.052 338.792Z" fill="white"/>
<path d="M214.947 172.208C218.228 177.733 224.298 181.139 230.86 181.139H280.143C286.709 181.139 292.775 177.733 296.056 172.208L320.696 130.724C323.977 125.199 323.977 118.388 320.696 112.863L296.052 71.3751C292.771 65.8498 286.705 62.4443 280.139 62.4443H230.86C224.294 62.4443 218.228 65.8498 214.947 71.3751L190.307 112.859C187.026 118.384 187.026 125.195 190.307 130.72L214.947 172.208Z" fill="white"/>
<path d="M439.823 313.424L415.183 271.937C411.902 266.411 405.832 263.006 399.27 263.006H349.987C343.421 263.006 337.355 266.411 334.074 271.937L309.434 313.42C306.153 318.946 306.153 325.757 309.434 331.282L334.074 372.766C337.355 378.291 343.425 381.696 349.987 381.696H399.27C405.836 381.696 411.902 378.291 415.183 372.766L439.823 331.282C443.104 325.761 443.104 318.95 439.823 313.424Z" fill="white"/>
<path d="M95.8163 239.064C99.0974 244.589 105.167 247.994 111.729 247.994H161.012C167.578 247.994 173.644 244.589 176.925 239.064L201.565 197.58C204.846 192.055 204.846 185.244 201.565 179.718L176.925 138.234C173.644 132.709 167.574 129.304 161.012 129.304H111.733C105.167 129.304 99.1013 132.709 95.8203 138.234L71.1766 179.714C67.8956 185.24 67.8956 192.051 71.1766 197.576L95.8163 239.064Z" fill="white"/>
<path d="M201.569 313.424L176.929 271.941C173.648 266.415 167.579 263.01 161.016 263.01H111.733C105.167 263.01 99.1013 266.415 95.8203 271.941L71.1766 313.424C67.8956 318.95 67.8956 325.761 71.1766 331.286L95.8163 372.77C99.0974 378.295 105.167 381.7 111.729 381.7H161.012C167.579 381.7 173.644 378.295 176.925 372.77L201.565 331.286C204.85 325.761 204.85 318.95 201.569 313.424Z" fill="white"/>
<path d="M309.431 197.576L331.095 234.048H304.183C298.03 223.665 290.396 210.785 290.396 210.785C287.587 206.055 282.392 203.14 276.775 203.14H234.59C228.969 203.14 223.778 206.055 220.969 210.785L199.877 246.295C197.068 251.025 197.068 256.856 199.877 261.585L220.969 297.096C223.778 301.826 228.969 304.741 234.59 304.741H276.775C282.396 304.741 287.587 301.826 290.396 297.096L305.439 271.767H254.626V246.921H295.726H311.798H343.818C345.773 247.601 347.842 247.994 349.979 247.994H399.262C405.829 247.994 411.894 244.589 415.175 239.064L439.815 197.58C443.096 192.055 443.096 185.244 439.815 179.718L415.183 138.231C411.902 132.705 405.832 129.3 399.27 129.3H349.987C343.421 129.3 337.355 132.705 334.074 138.231L309.435 179.714C306.15 185.24 306.15 192.051 309.431 197.576Z" fill="white"/>
</svg>
