<svg width="299" height="300" viewBox="0 0 299 300" fill="none" xmlns="http://www.w3.org/2000/svg">
<path d="M177.763 209.923C175.477 205.948 171.246 203.498 166.673 203.498H132.327C127.75 203.498 123.523 205.948 121.236 209.923L104.063 239.768C101.776 243.743 101.776 248.643 104.063 252.618L121.236 282.462C123.523 286.437 127.753 288.887 132.327 288.887H166.676C171.252 288.887 175.479 286.437 177.766 282.462L194.939 252.618C197.226 248.643 197.226 243.743 194.939 239.768L177.763 209.923Z" fill="white"/>
<path d="M121.236 90.078C123.523 94.053 127.753 96.503 132.327 96.503H166.676C171.252 96.503 175.479 94.053 177.766 90.078L194.939 60.2336C197.226 56.2586 197.226 51.3586 194.939 47.3836L177.763 17.5363C175.477 13.5613 171.249 11.1113 166.673 11.1113H132.327C127.75 11.1113 123.523 13.5613 121.236 17.5363L104.063 47.3808C101.776 51.3558 101.776 56.2558 104.063 60.2308L121.236 90.078Z" fill="white"/>
<path d="M277.967 191.673L260.794 161.825C258.507 157.85 254.276 155.4 249.703 155.4H215.354C210.778 155.4 206.55 157.85 204.263 161.825L187.09 191.67C184.803 195.645 184.803 200.545 187.09 204.52L204.263 234.364C206.55 238.339 210.78 240.789 215.354 240.789H249.703C254.279 240.789 258.507 238.339 260.794 234.364L277.967 204.52C280.254 200.548 280.254 195.648 277.967 191.673Z" fill="white"/>
<path d="M38.2046 138.175C40.4914 142.15 44.7217 144.6 49.2953 144.6H83.6443C88.2207 144.6 92.4482 142.15 94.735 138.175L111.908 108.33C114.195 104.355 114.195 99.4554 111.908 95.4804L94.735 65.6359C92.4482 61.6609 88.2179 59.2109 83.6443 59.2109H49.2981C44.7217 59.2109 40.4942 61.6609 38.2074 65.6359L21.0315 95.4776C18.7447 99.4526 18.7447 104.353 21.0315 108.328L38.2046 138.175Z" fill="white"/>
<path d="M111.911 191.672L94.7378 161.827C92.451 157.852 88.2207 155.402 83.6471 155.402H49.2981C44.7217 155.402 40.4942 157.852 38.2074 161.827L21.0315 191.672C18.7447 195.647 18.7447 200.547 21.0315 204.522L38.2046 234.366C40.4914 238.341 44.7217 240.791 49.2953 240.791H83.6443C88.2207 240.791 92.4482 238.341 94.735 234.366L111.908 204.522C114.198 200.547 114.198 195.647 111.911 191.672Z" fill="white"/>
<path d="M187.087 108.328L202.187 134.567H183.43C179.142 127.098 173.821 117.831 173.821 117.831C171.863 114.428 168.242 112.331 164.327 112.331H134.926C131.008 112.331 127.39 114.428 125.433 117.831L110.732 143.379C108.774 146.781 108.774 150.976 110.732 154.379L125.433 179.926C127.39 183.329 131.008 185.426 134.926 185.426H164.327C168.245 185.426 171.863 183.329 173.821 179.926L184.305 161.704H148.89V143.829H177.536H188.737H211.054C212.417 144.317 213.859 144.601 215.348 144.601H249.697C254.274 144.601 258.501 142.151 260.788 138.176L277.961 108.331C280.248 104.356 280.248 99.4563 277.961 95.4813L260.794 65.634C258.507 61.659 254.277 59.209 249.703 59.209H215.354C210.778 59.209 206.55 61.659 204.263 65.634L187.09 95.4785C184.801 99.4535 184.801 104.353 187.087 108.328Z" fill="white"/>
</svg>
